<svg xmlns="http://www.w3.org/2000/svg" style="display: none;">
  
    <symbol id="icon-pencil" viewBox="0 0 512 512">
      <path d="m455 150l-93-93c-5-5-14-5-20 0l-253 254l1 0l-1 0l-35 130l0 0c-2 4 0 10 3 14c5 4 11 5 16 2l0 0l128-34l0 0l0 0l254-254c5-5 5-14 0-19z m-359 265l21-76l56 56z"/>
    </symbol>
  
    <symbol id="icon-photo" viewBox="0 0 512 512">
      <path d="m477 92c0-12-10-23-23-23c-1 0-2 0-3 1l0-1l-393 0l0 0c-13 0-23 11-23 23l0 330l0 0c1 12 11 21 23 21l0 0l393 0l0-1c1 1 2 1 3 1c12 0 22-9 23-21l0 0l0-330z m-51 300l-55 0c0-1-1-2-1-2l0 0l-116-202l0 0c-3-5-8-9-15-9c-6 0-11 4-14 10l-77 134l-19-33l0 0c-2-3-4-5-8-5c-3 0-6 2-7 5l-28 48l0-218l340 0z m-26-194c0 28-23 51-51 51c-29 0-52-23-52-51c0-29 23-52 52-52c28 0 51 23 51 52z"/>
    </symbol>
  
    <symbol id="icon-camera" viewBox="0 0 512 512">
      <path d="m256 205c22 0 40 7 55 22c14 15 22 33 22 55c0 21-8 39-23 54c-15 15-33 22-54 22c-21 0-39-7-54-22c-15-15-23-33-23-54c0-22 8-40 23-55c15-15 33-22 54-22m205-77c14 0 26 5 36 15c10 10 15 22 15 36c0 0 0 231 0 231c0 13-5 25-15 35c-10 11-22 16-36 16c0 0-410 0-410 0c-13 0-25-5-36-16c-10-10-15-22-15-35c0 0 0-231 0-231c0-14 5-26 15-36c11-10 23-15 36-15c0 0 62 0 62 0c9 0 16-5 20-15c0 0 15-47 15-47c4-10 11-15 21-15c0 0 174 0 174 0c10 0 17 5 21 15c0 0 15 47 15 47c4 10 11 15 20 15c0 0 62 0 62 0m-205 282c36 0 66-13 91-38c25-25 37-55 37-90c0-36-12-66-37-91c-25-25-55-37-91-37c-35 0-66 12-91 37c-25 25-37 55-37 91c0 35 12 65 37 90c25 25 56 38 91 38m187-195c5 0 9-2 13-6c3-3 5-8 5-12c0-5-2-9-5-13c-4-3-8-5-13-5c-12 0-18 6-18 18c0 5 2 10 6 13c3 3 8 5 12 5"/>
    </symbol>
  
    <symbol id="icon-music" viewBox="0 0 512 512">
      <path d="m475 64l0 320c0 10-3 18-9 25-7 8-15 14-25 18-10 4-20 7-29 9-10 2-19 3-28 3-9 0-18-1-28-3-9-2-19-5-29-9-10-4-18-10-25-18-6-7-9-15-9-25 0-10 3-18 9-25 7-8 15-14 25-18 10-4 20-7 29-9 10-2 19-3 28-3 20 0 38 4 55 11l0-153-220 68 0 202c0 10-3 18-9 26-7 7-15 13-25 17-10 4-20 7-29 9-10 2-19 3-28 3-9 0-18-1-28-3-9-2-19-5-29-9-10-4-18-10-25-17-6-8-9-16-9-26 0-9 3-18 9-25 7-8 15-13 25-18 10-4 20-7 29-9 10-2 19-3 28-3 20 0 38 4 55 11l0-276c0-6 2-11 5-16 4-5 9-8 14-10l238-73c2-1 5-1 8-1 8 0 14 2 19 8 6 5 8 11 8 19z"/>
    </symbol>
  
    <symbol id="icon-video" viewBox="0 0 512 512">
      <path d="m491 80c-72-10-152-16-235-16-83 0-163 6-235 16-13 54-21 113-21 176 0 63 8 122 21 176 72 10 152 16 235 16 83 0 163-6 235-16 13-54 21-113 21-176 0-63-8-122-21-176z m-299 272l0-192 160 96z"/>
    </symbol>
  
    <symbol id="icon-youtube" viewBox="0 0 512 512">
      <path d="m147 0l-35 69-35-69-44 0 63 109 0-1 0 84 32 0 0-84 0 1 63-109z m93 64c9 0 16 7 16 16l0 64c0 9-7 16-16 16-9 0-16-7-16-16l0-64c0-9 7-16 16-16z m0-32c-26 0-48 22-48 48l0 64c0 26 22 48 48 48 26 0 48-22 48-48l0-64c0-26-22-48-48-48z m144 0l0 126c-14 12-32 19-32-23l0-103-32 0 0 110 0 0c1 26 6 74 64 35l0 15 32 0 0-160z m48 320c-9 0-16 7-16 16l0 16 32 0 0-16c0-9-7-16-16-16z m-144 16l0 84c11 11 32 12 32-4 0-16 0-59 0-75 0-16-16-21-32-5z m221-77c-1-19-8-34-20-45-11-12-27-18-45-19-35-2-115-3-185-3-70 0-156 1-190 3-19 1-34 7-46 19-12 11-18 26-20 45-2 37-3 51-3 70 0 19 1 47 3 84 2 19 8 34 20 45 12 12 27 18 46 19 34 2 120 3 190 3 70 0 150-1 185-3 18-1 34-7 45-19 12-11 19-26 20-45 2-31 3-59 3-84 0-25-1-39-3-70z m-413 189l-32 0 0-160-32 0 0-32 96 0 0 32-32 0z m128 0l-32 0 0-15c-61 34-63 1-64-25l0 0 0-88 32 0 0 88c0 20 18 18 32 6l0-94 32 0z m128-32c0 33-34 43-64 17l0 15-32 0 0-192 32 0 0 52c32-32 64-20 64 12 0 32 0 61 0 96z m128-64l0 16-64 0 0 32c0 9 7 16 16 16 9 0 16-7 16-16l0-16 32 0 0 16c0 26-22 48-48 48-26 0-48-22-48-48l0-64c0-26 22-48 48-48 26 0 48 22 48 48z"/>
    </symbol>
  
    <symbol id="icon-category" viewBox="0 0 512 512">
      <path d="m501 271c0 5-3 11-8 18l-90 105c-7 9-18 17-32 23c-14 7-26 10-38 10l-290 0c-6 0-12-1-16-4c-5-2-8-6-8-11c0-6 3-12 9-18l89-105c8-10 19-17 32-24c14-6 27-9 39-9l290 0c6 0 11 1 16 3c5 3 7 7 7 12z m-91-92l0 43l-222 0c-17 0-34 4-53 13c-18 8-33 19-44 31l-89 106l-2 2c0-1 0-2 0-4c0-1 0-2 0-3l0-256c0-16 6-30 18-42c11-12 25-18 42-18l85 0c16 0 30 6 42 18c12 12 18 26 18 42l0 8l145 0c16 0 30 6 42 18c12 12 18 26 18 42z"/>
    </symbol>
  
    <symbol id="icon-tag" viewBox="0 0 512 512">
      <path d="m165 128c0-10-4-19-11-26-7-7-16-11-26-11-10 0-19 4-26 11-7 7-11 16-11 26 0 10 4 19 11 26 7 7 16 11 26 11 10 0 19-4 26-11 7-7 11-16 11-26z m304 165c0 10-3 18-10 25l-140 141c-8 7-17 10-26 10-11 0-19-3-26-10l-204-205c-8-7-14-16-19-29-5-12-7-23-7-33l0-119c0-10 3-18 10-26 8-7 16-10 26-10l119 0c10 0 21 2 33 7 13 5 22 11 30 19l204 204c7 7 10 16 10 26z"/>
    </symbol>
  
    <symbol id="icon-phone" viewBox="0 0 512 512">
      <path d="m352 320c-32 32-32 64-64 64-32 0-64-32-96-64-32-32-64-64-64-96 0-32 32-32 64-64 32-32-64-128-96-128-32 0-96 96-96 96 0 64 66 194 128 256 62 62 192 128 256 128 0 0 96-64 96-96 0-32-96-128-128-96z"/>
    </symbol>
  
    <symbol id="icon-pin" viewBox="0 0 512 512">
      <path d="m224 352l32 160 32-160c-10 1-21 2-32 2-10 0-22-1-32-2z m127-149c-16-9-31-30-31-43l0-32c0-11 6-19 12-26 7-6 12-14 12-22 0-27-31-48-88-48-57 0-87 21-87 48 0 8 4 16 12 22 5 7 11 15 11 26l0 32c0 13-14 34-31 43-19 9-35 27-35 44 0 37 51 74 130 74 80 0 130-37 130-74 0-17-15-34-35-44z"/>
    </symbol>
  
    <symbol id="icon-user" viewBox="0 0 512 512">
      <path d="m488 391c-15-24-65-38-115-59c-49-21-61-28-61-28l-1-47c0 0 19-15 25-60c11 4 24-17 24-28c1-10-1-40-15-37c2-22 5-41 4-52c-4-38-42-79-100-79c-58 0-96 41-99 79c-1 11 1 30 4 52c-15-3-17 27-16 37c1 11 13 32 24 28c6 45 25 60 25 60l-1 47c0 0-11 8-61 28c-50 21-100 35-115 59c-13 21-9 121-9 121l497 0c0 0 4-100-10-121"/>
    </symbol>
  
    <symbol id="icon-quote" viewBox="0 0 512 512">
      <path d="m400 320c-62 0-112-50-112-112 0-62 50-112 112-112 62 0 112 50 112 112l1 16c0 124-101 224-224 224l0-64c42 0 82-17 113-47 5-6 11-12 16-18-6 1-12 1-18 1z m-288 0c-62 0-112-50-112-112 0-62 50-112 112-112 62 0 112 50 112 112l1 16c0 124-101 224-224 224l0-64c42 0 82-17 113-47 5-6 11-12 16-18-6 1-12 1-18 1z"/>
    </symbol>
  
    <symbol id="icon-more" viewBox="0 0 512 512">
      <path d="m114 304c-28 0-50-21-50-48 0-26 22-48 50-48 27 0 50 22 50 48 0 27-23 48-50 48z m142 0c-27 0-50-21-50-48 0-26 23-48 50-48 28 0 50 22 50 48 0 27-22 48-50 48z m142 0c-27 0-50-21-50-48 0-26 23-48 50-48 28 0 50 22 50 48 0 27-22 48-50 48z"/>
    </symbol>
  
    <symbol id="icon-email" viewBox="0 0 512 512">
      <path d="m40 129c13 7 186 100 192 103 7 4 15 5 23 5 9 0 17-1 24-5 6-3 179-96 192-103 12-7 24-33 1-33l-433 0c-23 0-11 26 1 33z m436 56c-14 8-189 99-197 103-9 5-15 6-24 6-8 0-14-1-23-6-8-4-182-95-197-103-10-5-9 1-9 6 0 5 0 187 0 187 0 10 14 25 25 25l410 0c11 0 25-15 25-25 0 0 0-182 0-187 0-5 1-11-10-6z"/>
    </symbol>
  
    <symbol id="icon-loader" viewBox="0 0 512 512">
      <path d="m381 22l-24 43c15 8 29 19 42 32 18 18 33 40 43 64 10 25 16 51 16 78 0 27-6 54-16 79-10 24-25 45-43 64-19 18-41 33-65 43-24 11-51 16-78 16-27 0-54-5-78-16-24-10-46-25-65-43-18-19-33-40-43-64-10-25-16-52-16-79 0-17 3-35 7-51 4-17 11-32 19-47 16-29 40-54 68-72 2-1 5-3 7-4l-24-43c-4 2-7 4-10 6-70 44-116 122-116 211 0 139 112 251 251 251 139 0 251-112 251-251 0-93-51-174-126-217z"/>
    </symbol>
  
    <symbol id="icon-comment" viewBox="0 0 512 512">
      <path d="m416 64l-320 0c-31 0-64 32-64 64l0 192c0 64 64 64 64 64l32 0 0 128 128-128c0 0 129 0 160 0 31 0 64-34 64-64l0-192c0-31-32-64-64-64z"/>
    </symbol>
  
    <symbol id="icon-comments" viewBox="0 0 512 512">
      <path d="m160 256c0-32 0-96 0-96 0 0-80 0-96 0-16 0-32 16-32 32 0 16 0 144 0 160 0 16 16 32 32 32 16 0 32 0 32 0l0 96 97-96c0 0 81 0 96 0 15 0 31-16 31-32 0-16 0-32 0-32 0 0-64 0-96 0-32 0-64-32-64-64z m288-192c-16 0-208 0-224 0-16 0-32 16-32 32 0 16 0 144 0 160 0 16 16 32 32 32 16 0 95 0 95 0l97 96 0-96c0 0 16 0 32 0 16 0 32-16 32-32 0-16 0-144 0-160 0-16-16-32-32-32z"/>
    </symbol>
  
    <symbol id="icon-search" viewBox="0 0 512 512">
      <path d="m498 498c-19 19-49 19-68 0l-85-85c-35 22-76 36-121 36c-124 0-224-101-224-225c0-124 100-224 224-224c124 0 225 100 225 224c0 45-14 86-36 121l85 85c19 19 19 49 0 68z m-274-434c-88 0-160 72-160 160c0 89 72 161 160 161c89 0 161-72 161-161c0-88-72-160-161-160z"/>
    </symbol>
  
    <symbol id="icon-zoom" viewBox="0 0 512 512">
      <path d="m480 160l-41-41l-105 105l-46-46l105-105l-41-41c0-18 14-32 32-32l96 0c18 0 32 14 32 32l0 96c0 18-14 32-32 32z m-320 320c0 18-14 32-32 32l-96 0c-18 0-32-14-32-32l0-96c0-18 14-32 32-32l41 41l105-105l46 46l-105 105z"/>
    </symbol>
  
    <symbol id="icon-menu" viewBox="0 0 512 512">
      <path d="m484 116c0 19-16 35-36 35l-384 0c-20 0-36-16-36-35c0-19 16-35 36-35l384 0c20 0 36 16 36 35z m0 140c0 19-16 35-36 35l-384 0c-20 0-36-16-36-35c0-19 16-35 36-35l384 0c20 0 36 16 36 35z m0 140c0 19-16 35-36 35l-384 0c-20 0-36-16-36-35c0-19 16-35 36-35l384 0c20 0 36 16 36 35z"/>
    </symbol>
  
    <symbol id="icon-link" viewBox="0 0 512 512">
      <path d="m220 318c-7 0-13-3-18-8-48-47-48-125 0-172l96-96c23-23 53-36 86-36 33 0 63 13 86 36 48 47 48 125 0 172l-44 44c-10 10-26 10-36 0-11-10-11-26 0-37l43-44c28-27 28-71 0-98-13-14-30-21-49-21-19 0-36 7-49 21l-96 96c-28 27-28 71 0 98 10 11 10 27 0 37-6 5-12 8-19 8z m-92 188c-33 0-63-13-86-36-48-47-48-125 0-172l44-44c10-10 26-10 36 0 11 10 11 26 0 37l-43 44c-28 27-28 71 0 99 13 13 30 20 49 20 19 0 36-7 50-21l96-96c27-27 27-71 0-98-11-11-11-27 0-37 10-10 26-10 36 0 48 47 48 125 0 172l-96 96c-23 23-53 36-86 36z"/>
    </symbol>
  
    <symbol id="icon-star" viewBox="0 0 512 512">
      <path d="m59 248l1 0l2 1c0 0 0 0 0 0l86 62l-33 101c0 0 0 0 0 0l-1 1l0 1c-18 55 6 72 53 38l1 0l88-63l86 62c0 0 0 0 0 0l2 1l1 1c47 34 71 16 53-39l0-1l-1-1c0 0 0 0 0 0l-33-101l86-62c0 0 0 0 0 0l3-1c47-34 38-62-20-62l-110 0l-34-102l0 0c-18-56-48-56-67 0l0 0l-33 102l-111 0c-57 0-66 27-19 62z"/>
    </symbol>
  
    <symbol id="icon-star-empty" viewBox="0 0 512 512">
      <path d="m433 186l-110 0l-33-102l-1 0c-9-28-21-42-33-42c-12 0-24 14-33 42l-1 0l-33 102l-110 0c-59 0-68 28-20 62l1 1l1 0c0 0 0 0 0 0l87 62l-34 101c0 0 0 0 0 0l0 1l0 1c-12 36-6 56 13 56c10 0 24-6 40-17l1-1l88-63l86 62c0 0 0 0 0 0l1 1l1 1c17 11 30 17 40 17c19 0 26-20 14-56l-1-1l0-1c0 0 0 0 0 0l-33-101l86-61c0 0 0 0 0-1l2-1c49-34 40-62-19-62z m-93 90l-26 19l10 30l26 78l-69-49l-25-18l-25 18l-69 49l26-78l10-30l-25-19l-68-48l115 0l10-29l26-80l26 80l10 29l115 0z"/>
    </symbol>
  
    <symbol id="icon-close" viewBox="0 0 512 512">
      <path d="m414 353l-97-97l97-97c17-17 17-44 0-61c-17-17-44-17-61 0l-97 97l-97-97c-17-17-44-17-61 0c-17 17-17 44 0 61l97 97l-97 97c-17 17-17 44 0 61c8 8 19 13 30 13c11 0 23-5 31-13l97-97l97 97c9 8 20 13 31 13c11 0 22-5 30-13c17-17 17-44 0-61z"/>
    </symbol>
  
    <symbol id="icon-ok" viewBox="0 0 512 512">
      <path d="m192 420c-11 0-22-5-30-13l-121-118c-17-17-17-43 0-59c16-16 43-16 59 0l92 90l220-215c16-17 43-17 59 0c17 16 17 42 0 58l-249 244c-8 8-19 13-30 13z"/>
    </symbol>
  
    <symbol id="icon-google-plus" viewBox="0 0 512 512">
      <path d="m163 229l0 56 92 0c-3 24-28 70-92 70-56 0-101-46-101-103 0-57 45-103 101-103 32 0 53 14 65 25l44-42c-28-27-65-43-109-43-90 0-163 73-163 163 0 90 73 163 163 163 94 0 156-66 156-159 0-11-1-19-2-27z m349-5l-48 0 0-48-48 0 0 48-48 0 0 48 48 0 0 48 48 0 0-48 48 0z"/>
    </symbol>
  
    <symbol id="icon-facebook" viewBox="0 0 512 512">
      <path d="m304 96l80 0 0-96-80 0c-62 0-112 50-112 112l0 48-64 0 0 96 64 0 0 256 96 0 0-256 80 0 16-96-96 0 0-48c0-9 7-16 16-16z"/>
    </symbol>
  
    <symbol id="icon-instagram" viewBox="0 0 512 512">
      <path d="m464 0l-416 0c-26 0-48 22-48 48l0 416c0 26 22 48 48 48l416 0c26 0 48-22 48-48l0-416c0-26-22-48-48-48z m-112 80c0-9 7-16 16-16l64 0c9 0 16 7 16 16l0 64c0 9-7 16-16 16l-64 0c-9 0-16-7-16-16z m-96 80c53 0 96 43 96 96 0 53-43 96-96 96-53 0-96-43-96-96 0-53 43-96 96-96z m192 272c0 9-7 16-16 16l-352 0c-9 0-16-7-16-16l0-208 35 0c-2 10-3 21-3 32 0 88 72 160 160 160 88 0 160-72 160-160 0-11-1-22-3-32l35 0z"/>
    </symbol>
  
    <symbol id="icon-twitter" viewBox="0 0 512 512">
      <path d="m512 113c-19 9-39 14-60 17 21-13 38-34 46-58-20 12-43 20-67 25-19-20-46-33-76-33-58 0-105 47-105 105 0 8 0 16 2 24-87-4-164-46-216-110-9 16-14 34-14 53 0 36 18 69 46 87-17 0-33-5-47-13 0 1 0 1 0 2 0 50 36 93 84 103-9 2-18 3-28 3-7 0-13 0-20-2 14 42 53 72 99 73-36 29-82 45-131 45-8 0-17 0-25-1 47 30 102 47 161 47 193 0 299-160 299-299 0-4 0-9 0-13 20-15 38-34 52-55z"/>
    </symbol>
  
    <symbol id="icon-rss" viewBox="0 0 512 512">
      <path d="m134 333c-24 0-45 20-45 45c0 24 21 44 45 44c25 0 45-20 45-44c0-25-20-45-45-45z m-13-124c-1 0-1 0-1 0l0 0l-18 0l0 0c-9 1-15 8-16 17l0 0l0 32l1 0c1 8 7 14 15 15l0 0l18 0l0 0c0 0 0 0 1 0c65 0 118 53 119 118l0 0l0 18l0 0c1 9 8 15 17 16l0 0l32 0l0-1c8-1 14-7 15-15l0 0l0-18l0 0c-1-100-83-182-183-182z m305 182c-1-167-138-304-305-304c-1 0-1 0-1 0l0 0l-18 0l0 1c-9 1-15 8-16 17l0 0l0 31l1 0c1 8 7 15 15 16l0 0l18 0l0 0c0 0 0 0 1 0c132 0 240 107 240 239l0 0l0 18l0 0c1 9 9 15 17 16l0 0l32 0l0-1c8-1 14-7 15-15l1 0l0-18l0 0z"/>
    </symbol>
  
    <symbol id="icon-flickr" viewBox="0 0 512 512">
      <path d="m400 208c-35 0-64 29-64 64 0 35 29 64 64 64 35 0 64-29 64-64 0-35-29-64-64-64z m0-48c62 0 112 50 112 112 0 62-50 112-112 112-62 0-112-50-112-112 0-62 50-112 112-112z m-400 112c0-62 50-112 112-112 62 0 112 50 112 112 0 62-50 112-112 112-62 0-112-50-112-112z"/>
    </symbol>
  
    <symbol id="icon-tumblr" viewBox="0 0 512 512">
      <path d="m288 224l0 117c0 30 0 47 3 55 3 9 11 17 19 22 12 7 25 11 39 11 26 0 41-4 67-21l0 77c-22 11-41 17-59 21-17 4-37 6-57 6-24 0-37-3-55-9-18-6-34-14-46-25-13-11-22-23-27-35-5-12-7-30-7-54l0-179-69 0 0-73c20-6 43-16 57-28 14-12 26-27 35-44 8-17 14-39 17-65l83 0 0 128 128 0 0 96z"/>
    </symbol>
  
    <symbol id="icon-skype" viewBox="0 0 512 512">
      <path d="m213 19c-1-1-2-1-3-2-1 1-1 1-2 1z m-195 192c0 0 0 1 0 2 1 1 1 2 1 3z m475 90c1-1 1-1 1-2-1-1-1-2-1-3z m-197 191c1 0 2 0 3 1 0 0 1 0 2-1z m198-193c0 1 0 1-1 2l0-5c0 1 0 2 1 3 3-15 4-29 4-44 0-33-6-64-19-94-12-29-30-55-52-77-22-22-48-40-77-52-29-13-61-19-94-19-15 0-31 1-46 4 0 0 0 0 0 0 1 1 2 1 3 2l-5-1c1 0 1 0 2-1-20-11-43-16-67-16-38 0-74 14-101 41-27 27-42 63-42 102 0 24 6 48 18 69 0-1 0-2 1-3l0 6c0-1 0-2-1-3-2 14-3 28-3 42 0 32 6 64 19 94 12 29 29 55 51 77 23 22 48 39 77 52 30 12 62 19 94 19 15 0 29-2 43-4-1-1-2-1-3-2l5 1c-1 1-1 1-2 1 21 12 45 18 70 18 38 0 74-15 101-42 27-27 42-63 42-101 0-24-6-48-18-69z m-237 104c-86 0-124-42-124-74 0-16 12-28 28-28 37 0 28 53 96 53 35 0 55-19 55-38 0-12-6-25-29-31l-77-19c-61-15-72-49-72-80 0-65 61-89 118-89 53 0 115 29 115 68 0 17-14 26-31 26-31 0-25-43-88-43-32 0-49 14-49 35 0 20 25 26 46 31l57 13c62 14 77 50 77 84 0 53-40 92-122 92z"/>
    </symbol>
  
    <symbol id="icon-linkedin" viewBox="0 0 512 512">
      <path d="m192 192l89 0 0 45 1 0c12-22 42-45 87-45 94 0 111 58 111 134l0 154-92 0 0-137c0-32-1-74-48-74-48 0-56 35-56 72l0 139-92 0z m-160 0l96 0 0 288-96 0z m96-80c0 27-21 48-48 48-27 0-48-21-48-48 0-27 21-48 48-48 27 0 48 21 48 48z"/>
    </symbol>
  
    <symbol id="icon-pinterest" viewBox="0 0 512 512">
      <path d="m256 34c-122 0-222 100-222 222 0 94 59 174 141 207-2-18-3-45 1-64 4-17 26-110 26-110 0 0-7-14-7-33 0-31 18-54 41-54 18 0 28 14 28 31 0 19-12 48-19 74-5 22 11 40 33 40 39 0 70-42 70-102 0-53-38-90-93-90-63 0-100 48-100 97 0 19 7 39 17 50 1 2 2 4 1 7-2 7-5 22-6 25-1 4-3 5-8 3-27-13-45-54-45-86 0-70 51-134 147-134 77 0 137 54 137 128 0 76-49 138-115 138-23 0-44-12-51-26 0 0-11 43-14 53-5 19-19 43-28 58 21 6 43 10 66 10 123 0 222-99 222-222 0-122-99-222-222-222z"/>
    </symbol>
  
    <symbol id="icon-shop" viewBox="0 0 512 512">
      <path d="m395 203c0-11-11-22-22-22l-35 0l-7-64c-3-21-22-42-43-42l-64 0c-21 0-40 21-43 42l-7 64l-35 0c-11 0-22 11-22 22l-21 213c0 11 11 21 21 21l278 0c10 0 21-10 21-21z m-200-22l8-64c1-10 10-21 21-21l64 0c11 0 20 11 21 21l8 64z"/>
    </symbol>
  
</svg>
